<mxfile host="app.diagrams.net" modified="2020-09-28T13:08:53.133Z" agent="5.0 (Macintosh; Intel Mac OS X 10_15_6) AppleWebKit/605.1.15 (KHTML, like Gecko) Version/14.0 Safari/605.1.15" etag="q4DA8YkDxNnjZDb7O1pz" version="13.7.5" type="github">
  <diagram id="kgpKYQtTHZ0yAKxKKP6v" name="Page-1">
    <mxGraphModel dx="2200" dy="1835" grid="1" gridSize="10" guides="1" tooltips="1" connect="1" arrows="1" fold="1" page="1" pageScale="1" pageWidth="850" pageHeight="1100" math="0" shadow="0">
      <root>
        <mxCell id="0" />
        <mxCell id="1" parent="0" />
        <mxCell id="3nuBFxr9cyL0pnOWT2aG-1" value="Frontend" style="shape=umlLifeline;perimeter=lifelinePerimeter;container=1;collapsible=0;recursiveResize=0;rounded=0;shadow=0;strokeWidth=1;" parent="1" vertex="1">
          <mxGeometry x="90" y="80" width="100" height="520" as="geometry" />
        </mxCell>
        <mxCell id="3nuBFxr9cyL0pnOWT2aG-2" value="" style="points=[];perimeter=orthogonalPerimeter;rounded=0;shadow=0;strokeWidth=1;" parent="3nuBFxr9cyL0pnOWT2aG-1" vertex="1">
          <mxGeometry x="45" y="70" width="10" height="360" as="geometry" />
        </mxCell>
        <mxCell id="POqjsd0KO_m7m_7o1POc-37" value="" style="html=1;points=[];perimeter=orthogonalPerimeter;" vertex="1" parent="3nuBFxr9cyL0pnOWT2aG-1">
          <mxGeometry x="50" y="366" width="10" height="40" as="geometry" />
        </mxCell>
        <mxCell id="POqjsd0KO_m7m_7o1POc-38" value="Update view values" style="edgeStyle=orthogonalEdgeStyle;html=1;align=left;spacingLeft=2;endArrow=block;rounded=0;entryX=1;entryY=0;" edge="1" target="POqjsd0KO_m7m_7o1POc-37" parent="3nuBFxr9cyL0pnOWT2aG-1">
          <mxGeometry relative="1" as="geometry">
            <mxPoint x="55" y="346" as="sourcePoint" />
            <Array as="points">
              <mxPoint x="80" y="346" />
            </Array>
          </mxGeometry>
        </mxCell>
        <mxCell id="3nuBFxr9cyL0pnOWT2aG-5" value="Api Gateway" style="shape=umlLifeline;perimeter=lifelinePerimeter;container=1;collapsible=0;recursiveResize=0;rounded=0;shadow=0;strokeWidth=1;" parent="1" vertex="1">
          <mxGeometry x="360" y="80" width="100" height="520" as="geometry" />
        </mxCell>
        <mxCell id="3nuBFxr9cyL0pnOWT2aG-6" value="" style="points=[];perimeter=orthogonalPerimeter;rounded=0;shadow=0;strokeWidth=1;" parent="3nuBFxr9cyL0pnOWT2aG-5" vertex="1">
          <mxGeometry x="45" y="130" width="10" height="200" as="geometry" />
        </mxCell>
        <mxCell id="3nuBFxr9cyL0pnOWT2aG-7" value="" style="verticalAlign=bottom;endArrow=open;dashed=1;endSize=8;exitX=0;exitY=0.95;shadow=0;strokeWidth=1;entryX=1;entryY=0.693;entryDx=0;entryDy=0;entryPerimeter=0;" parent="1" source="3nuBFxr9cyL0pnOWT2aG-6" target="3nuBFxr9cyL0pnOWT2aG-2" edge="1">
          <mxGeometry relative="1" as="geometry">
            <mxPoint x="150" y="400" as="targetPoint" />
          </mxGeometry>
        </mxCell>
        <mxCell id="POqjsd0KO_m7m_7o1POc-36" value="Send response returned" style="edgeLabel;html=1;align=center;verticalAlign=middle;resizable=0;points=[];" vertex="1" connectable="0" parent="3nuBFxr9cyL0pnOWT2aG-7">
          <mxGeometry x="0.0462" y="-2" relative="1" as="geometry">
            <mxPoint y="-9.5" as="offset" />
          </mxGeometry>
        </mxCell>
        <mxCell id="3nuBFxr9cyL0pnOWT2aG-8" value="POSTÂ /admin/vehicles" style="verticalAlign=bottom;endArrow=block;entryX=0.014;entryY=0.065;shadow=0;strokeWidth=1;entryDx=0;entryDy=0;entryPerimeter=0;" parent="1" target="3nuBFxr9cyL0pnOWT2aG-6" edge="1">
          <mxGeometry relative="1" as="geometry">
            <mxPoint x="147" y="222" as="sourcePoint" />
          </mxGeometry>
        </mxCell>
        <mxCell id="POqjsd0KO_m7m_7o1POc-1" value="Admin Backend" style="shape=umlLifeline;perimeter=lifelinePerimeter;container=1;collapsible=0;recursiveResize=0;rounded=0;shadow=0;strokeWidth=1;" vertex="1" parent="1">
          <mxGeometry x="600" y="80" width="100" height="520" as="geometry" />
        </mxCell>
        <mxCell id="POqjsd0KO_m7m_7o1POc-2" value="" style="points=[];perimeter=orthogonalPerimeter;rounded=0;shadow=0;strokeWidth=1;" vertex="1" parent="POqjsd0KO_m7m_7o1POc-1">
          <mxGeometry x="45" y="137" width="10" height="193" as="geometry" />
        </mxCell>
        <mxCell id="POqjsd0KO_m7m_7o1POc-30" value="" style="html=1;points=[];perimeter=orthogonalPerimeter;" vertex="1" parent="POqjsd0KO_m7m_7o1POc-1">
          <mxGeometry x="50" y="261" width="10" height="40" as="geometry" />
        </mxCell>
        <mxCell id="POqjsd0KO_m7m_7o1POc-31" value="Perform vehicle validation and creation" style="edgeStyle=orthogonalEdgeStyle;html=1;align=left;spacingLeft=2;endArrow=block;rounded=0;entryX=1;entryY=0;" edge="1" parent="POqjsd0KO_m7m_7o1POc-1">
          <mxGeometry relative="1" as="geometry">
            <mxPoint x="55" y="223" as="sourcePoint" />
            <Array as="points">
              <mxPoint x="80" y="223" />
            </Array>
            <mxPoint x="60" y="261" as="targetPoint" />
          </mxGeometry>
        </mxCell>
        <mxCell id="POqjsd0KO_m7m_7o1POc-3" value="Auth Backend" style="shape=umlLifeline;perimeter=lifelinePerimeter;container=1;collapsible=0;recursiveResize=0;rounded=0;shadow=0;strokeWidth=1;" vertex="1" parent="1">
          <mxGeometry x="890" y="80" width="100" height="520" as="geometry" />
        </mxCell>
        <mxCell id="POqjsd0KO_m7m_7o1POc-4" value="" style="points=[];perimeter=orthogonalPerimeter;rounded=0;shadow=0;strokeWidth=1;" vertex="1" parent="POqjsd0KO_m7m_7o1POc-3">
          <mxGeometry x="45" y="80" width="10" height="160" as="geometry" />
        </mxCell>
        <mxCell id="POqjsd0KO_m7m_7o1POc-40" value="" style="html=1;points=[];perimeter=orthogonalPerimeter;" vertex="1" parent="POqjsd0KO_m7m_7o1POc-3">
          <mxGeometry x="50" y="170" width="10" height="30" as="geometry" />
        </mxCell>
        <mxCell id="POqjsd0KO_m7m_7o1POc-41" value="&amp;nbsp;Validate token with JWT and Passport.js" style="edgeStyle=orthogonalEdgeStyle;html=1;align=left;spacingLeft=2;endArrow=block;rounded=0;entryX=1;entryY=0;" edge="1" parent="POqjsd0KO_m7m_7o1POc-3">
          <mxGeometry relative="1" as="geometry">
            <mxPoint x="55" y="153" as="sourcePoint" />
            <Array as="points">
              <mxPoint x="80" y="153" />
            </Array>
            <mxPoint x="60" y="173" as="targetPoint" />
          </mxGeometry>
        </mxCell>
        <mxCell id="POqjsd0KO_m7m_7o1POc-5" value="Administrator" style="shape=umlLifeline;perimeter=lifelinePerimeter;container=1;collapsible=0;recursiveResize=0;rounded=0;shadow=0;strokeWidth=1;" vertex="1" parent="1">
          <mxGeometry x="-140" y="80" width="100" height="520" as="geometry" />
        </mxCell>
        <mxCell id="POqjsd0KO_m7m_7o1POc-6" value="" style="points=[];perimeter=orthogonalPerimeter;rounded=0;shadow=0;strokeWidth=1;" vertex="1" parent="POqjsd0KO_m7m_7o1POc-5">
          <mxGeometry x="45" y="70" width="10" height="360" as="geometry" />
        </mxCell>
        <mxCell id="POqjsd0KO_m7m_7o1POc-9" value="" style="endArrow=classic;html=1;exitX=0.9;exitY=0.047;exitDx=0;exitDy=0;exitPerimeter=0;entryX=-0.014;entryY=0.047;entryDx=0;entryDy=0;entryPerimeter=0;" edge="1" parent="1" source="POqjsd0KO_m7m_7o1POc-6" target="3nuBFxr9cyL0pnOWT2aG-2">
          <mxGeometry width="50" height="50" relative="1" as="geometry">
            <mxPoint x="70" y="180" as="sourcePoint" />
            <mxPoint x="130" y="167" as="targetPoint" />
          </mxGeometry>
        </mxCell>
        <mxCell id="POqjsd0KO_m7m_7o1POc-10" value="Fill the vehicle form" style="edgeLabel;html=1;align=center;verticalAlign=middle;resizable=0;points=[];" vertex="1" connectable="0" parent="POqjsd0KO_m7m_7o1POc-9">
          <mxGeometry x="-0.0162" y="-2" relative="1" as="geometry">
            <mxPoint x="-20" y="-10.96" as="offset" />
          </mxGeometry>
        </mxCell>
        <mxCell id="POqjsd0KO_m7m_7o1POc-11" value="" style="shape=umlActor;verticalLabelPosition=bottom;verticalAlign=top;html=1;" vertex="1" parent="1">
          <mxGeometry x="-105" y="-10" width="30" height="60" as="geometry" />
        </mxCell>
        <mxCell id="POqjsd0KO_m7m_7o1POc-14" value="Redirects to :3000/api/" style="verticalAlign=bottom;endArrow=block;shadow=0;strokeWidth=1;exitX=1;exitY=0.087;exitDx=0;exitDy=0;exitPerimeter=0;entryX=-0.062;entryY=0.048;entryDx=0;entryDy=0;entryPerimeter=0;" edge="1" parent="1" source="3nuBFxr9cyL0pnOWT2aG-6" target="POqjsd0KO_m7m_7o1POc-2">
          <mxGeometry relative="1" as="geometry">
            <mxPoint x="418" y="227.19999999999982" as="sourcePoint" />
            <mxPoint x="630" y="227" as="targetPoint" />
          </mxGeometry>
        </mxCell>
        <mxCell id="POqjsd0KO_m7m_7o1POc-15" value="Send Access Token to validate&#xa;Via GET /auth/validate" style="verticalAlign=bottom;endArrow=block;shadow=0;strokeWidth=1;exitX=1;exitY=0.081;exitDx=0;exitDy=0;exitPerimeter=0;entryX=-0.186;entryY=0.45;entryDx=0;entryDy=0;entryPerimeter=0;" edge="1" parent="1">
          <mxGeometry relative="1" as="geometry">
            <mxPoint x="655" y="228.6329999999998" as="sourcePoint" />
            <mxPoint x="933.1399999999999" y="228" as="targetPoint" />
            <Array as="points">
              <mxPoint x="800" y="228" />
            </Array>
          </mxGeometry>
        </mxCell>
        <mxCell id="POqjsd0KO_m7m_7o1POc-20" value="Returns the user object decoded" style="verticalAlign=bottom;endArrow=open;dashed=1;endSize=8;exitX=-0.1;exitY=0.494;shadow=0;strokeWidth=1;exitDx=0;exitDy=0;exitPerimeter=0;entryX=0.929;entryY=0.306;entryDx=0;entryDy=0;entryPerimeter=0;" edge="1" parent="1">
          <mxGeometry relative="1" as="geometry">
            <mxPoint x="654.29" y="287.058" as="targetPoint" />
            <mxPoint x="934" y="287.0400000000002" as="sourcePoint" />
          </mxGeometry>
        </mxCell>
        <mxCell id="POqjsd0KO_m7m_7o1POc-34" value="Send response of vehicle creation" style="html=1;verticalAlign=bottom;endArrow=open;dashed=1;endSize=8;entryX=1.2;entryY=0.813;entryDx=0;entryDy=0;entryPerimeter=0;exitX=-0.026;exitY=0.868;exitDx=0;exitDy=0;exitPerimeter=0;" edge="1" parent="1">
          <mxGeometry relative="1" as="geometry">
            <mxPoint x="644.7399999999998" y="386.5239999999999" as="sourcePoint" />
            <mxPoint x="417" y="387.3399999999999" as="targetPoint" />
            <Array as="points" />
          </mxGeometry>
        </mxCell>
        <mxCell id="POqjsd0KO_m7m_7o1POc-35" value="&lt;font style=&quot;font-size: 23px&quot;&gt;Create new Oficial vehicle /&lt;br&gt;Create new Resident vehicle&lt;/font&gt;" style="text;html=1;align=center;verticalAlign=middle;resizable=0;points=[];autosize=1;" vertex="1" parent="1">
          <mxGeometry x="250" y="-60" width="310" height="40" as="geometry" />
        </mxCell>
        <mxCell id="POqjsd0KO_m7m_7o1POc-39" value="Show creation message" style="html=1;verticalAlign=bottom;endArrow=open;dashed=1;endSize=8;exitX=-0.069;exitY=0.944;exitDx=0;exitDy=0;exitPerimeter=0;entryX=1.157;entryY=0.972;entryDx=0;entryDy=0;entryPerimeter=0;" edge="1" parent="1" target="POqjsd0KO_m7m_7o1POc-6">
          <mxGeometry relative="1" as="geometry">
            <mxPoint x="134.30999999999995" y="497.8399999999997" as="sourcePoint" />
            <mxPoint x="-80" y="498" as="targetPoint" />
          </mxGeometry>
        </mxCell>
      </root>
    </mxGraphModel>
  </diagram>
</mxfile>
